<svg width="54" height="54" viewBox="0 0 54 54" fill="none" xmlns="http://www.w3.org/2000/svg">
<g clip-path="url(#clip0_159_58)">
<path d="M46.5606 8.91744L22.7307 3.09151C19.6983 2.35018 16.6275 4.2107 15.8852 7.23899L8.25659 38.3599C7.44679 41.6635 9.47918 45.009 12.7871 45.8178L36.1171 51.5215C36.8534 51.7015 37.5964 51.2513 37.7766 50.516C37.9569 49.7808 37.5062 49.0387 36.7698 48.8587L13.4398 43.155C11.6021 42.7057 10.473 40.8471 10.9229 39.0118C11.3728 37.1765 13.2339 36.0488 15.0716 36.4981L38.4016 42.2018C39.1379 42.3818 39.8809 41.9316 40.0611 41.1964L47.5674 10.5747C47.7476 9.83948 47.2969 9.09745 46.5606 8.91744ZM12.3215 33.3061L18.5515 7.89085C18.9345 6.32831 20.5133 5.37175 22.0779 5.75427L22.1613 5.77464C22.3913 5.83088 22.5322 6.0628 22.4759 6.29254L15.823 33.433C15.7696 33.6506 15.557 33.7927 15.3362 33.7535C14.4828 33.6015 13.6334 33.6346 12.8323 33.8257C12.5225 33.8995 12.2458 33.6149 12.3215 33.3061Z" fill="#3491E7"/>
<path d="M37.9116 44.1986L14.5816 38.4949C13.8452 38.3149 13.1023 38.7651 12.9221 39.5003C12.7418 40.2356 13.1925 40.9776 13.9288 41.1576L37.2588 46.8613C37.9952 47.0413 38.7381 46.5911 38.9183 45.8559C39.0986 45.1206 38.6479 44.3786 37.9116 44.1986Z" fill="#3491E7"/>
</g>
<defs>
<clipPath id="clip0_159_58">
<rect width="43.917" height="43.8653" fill="white" transform="matrix(0.971391 0.237485 -0.23808 0.971246 11.2317 0.280273)"/>
</clipPath>
</defs>
</svg>
