<svg width="38" height="48" viewBox="0 0 38 48" fill="none" xmlns="http://www.w3.org/2000/svg">
<path d="M36.5587 20.5771C35.3533 19.5916 33.6462 19.2762 32.209 19.7732C31.8239 19.9066 31.4663 20.0936 31.1459 20.3293C30.3289 20.9304 28.5148 22.7348 27.0773 24.5205V10.7553C27.0773 9.58525 26.5964 8.44169 25.7578 7.61745C24.9254 6.7993 23.8319 6.35803 22.6844 6.37949C22.1634 6.38879 21.6642 6.49213 21.2029 6.67271V5.32819C21.2029 4.05482 20.6794 2.81007 19.7661 1.91252C18.8611 1.02285 17.6768 0.543327 16.4241 0.566213C13.9267 0.609481 11.8878 2.6395 11.8131 5.12114C11.272 4.87584 10.6845 4.73817 10.0763 4.71993C8.80754 4.68274 7.55099 5.17371 6.62984 6.06803C5.72765 6.94376 5.23061 8.09984 5.23061 9.31992L5.22739 10.6237C4.83798 10.4957 4.42282 10.4256 3.99122 10.4256C1.81316 10.4256 0.0413208 12.1974 0.0413208 14.3751L0.0427511 34.3849L0.0459694 34.4797C0.227981 37.1058 0.777591 39.3543 1.68014 41.163C2.52619 42.8586 3.70658 44.2239 5.18841 45.2208C8.10453 47.1833 11.7069 47.435 14.5193 47.435C20.0422 47.435 25.0108 44.6891 27.4957 40.2665C27.7979 39.7795 28.5942 38.5272 29.4542 37.1766C30.2917 35.8607 31.0709 34.6481 31.7578 33.5782C32.1354 32.99 32.479 32.455 32.7773 31.9887C33.8883 30.2512 35.0722 28.5666 36.2966 26.9815C36.7508 26.3936 36.8906 26.2341 36.9224 26.1991C37.4956 25.5736 37.8568 24.808 37.9669 23.9845C38.1403 22.6926 37.6268 21.4503 36.5587 20.5771ZM35.2421 23.6198C35.2067 23.883 35.0869 24.1326 34.8956 24.3414C34.7958 24.4505 34.6174 24.6579 34.1211 25.3008C32.847 26.95 31.6155 28.7018 30.4608 30.5076C30.1633 30.9728 29.8211 31.5056 29.4442 32.0924C28.7558 33.1645 27.9756 34.3799 27.1349 35.7001C26.2549 37.0825 25.4403 38.3631 25.1421 38.8447L25.111 38.8977C23.1167 42.4678 19.0585 44.6855 14.5196 44.6855C12.0977 44.6855 9.02245 44.4871 6.72353 42.9402C4.37777 41.3618 3.09189 38.5476 2.79223 34.3366L2.7908 14.3755C2.7908 13.7136 3.32932 13.1751 3.99122 13.1751C4.65704 13.1751 5.19878 13.7136 5.19878 14.3755V21.8637C5.19878 21.8859 5.20129 21.9073 5.202 21.9295C5.20343 21.9538 5.20343 21.9785 5.20594 22.0028C5.20808 22.0246 5.21237 22.0457 5.21559 22.0671C5.21917 22.0911 5.22167 22.1154 5.22632 22.1394C5.23097 22.1608 5.2374 22.1819 5.24277 22.203C5.24849 22.2256 5.25314 22.2488 5.26029 22.271C5.26673 22.2924 5.27531 22.3132 5.28317 22.3339C5.29068 22.355 5.29748 22.3765 5.30642 22.3972C5.315 22.4179 5.32537 22.4376 5.33502 22.4576C5.34468 22.4777 5.35362 22.498 5.36399 22.5177C5.37436 22.537 5.38688 22.5556 5.39832 22.5746C5.40976 22.5935 5.42049 22.6128 5.43265 22.6311C5.44516 22.6493 5.45911 22.6665 5.47234 22.684C5.48557 22.7019 5.49773 22.7201 5.51167 22.7369C5.52562 22.7537 5.54099 22.7691 5.5553 22.7852C5.57032 22.8016 5.58462 22.8192 5.60035 22.8349C5.61573 22.8499 5.63182 22.8635 5.64791 22.8782C5.66436 22.8932 5.68045 22.9093 5.69798 22.9236C5.71442 22.9372 5.73195 22.9493 5.74911 22.9622C5.76735 22.9758 5.78487 22.9901 5.80346 23.003C5.82098 23.0148 5.83958 23.0248 5.85746 23.0355C5.87713 23.0476 5.89644 23.0605 5.91682 23.072C5.93541 23.082 5.95508 23.0902 5.97403 23.0995C5.99477 23.1099 6.01551 23.1206 6.03697 23.1299C6.05663 23.1385 6.07773 23.1449 6.09776 23.1524C6.11957 23.1603 6.14102 23.1692 6.16319 23.1764C6.18429 23.1828 6.20646 23.1875 6.22792 23.1932C6.25045 23.1989 6.27226 23.2057 6.29479 23.2104C6.31767 23.215 6.34056 23.2175 6.36344 23.2211C6.38633 23.2243 6.4085 23.2289 6.43138 23.2314C6.45427 23.2336 6.47787 23.234 6.50111 23.235C6.524 23.2361 6.54688 23.2386 6.57013 23.2386C6.5712 23.2386 6.57263 23.2386 6.5737 23.2386C6.62126 23.2386 6.66811 23.2361 6.71423 23.2314C6.73426 23.2297 6.75393 23.2254 6.77395 23.2225C6.79934 23.2189 6.82544 23.2161 6.85047 23.2107C6.87694 23.2053 6.90232 23.1978 6.92807 23.191C6.94595 23.186 6.96454 23.1825 6.98207 23.1771C7.01067 23.1682 7.03857 23.1571 7.06646 23.1463C7.08005 23.141 7.09471 23.1367 7.10829 23.131C7.13619 23.1192 7.16265 23.1052 7.18947 23.092C7.20234 23.0856 7.21557 23.0802 7.22844 23.0734C7.25347 23.0598 7.27707 23.0441 7.30103 23.0291C7.31462 23.0208 7.32857 23.0133 7.34144 23.0044C7.36361 22.9897 7.38471 22.9729 7.40581 22.9565C7.41975 22.9461 7.43406 22.9364 7.44729 22.9254C7.46695 22.9096 7.48483 22.8917 7.50343 22.8746C7.51737 22.8621 7.53168 22.8499 7.54526 22.837C7.56243 22.8199 7.57781 22.8013 7.5939 22.7834C7.60713 22.7687 7.62143 22.7544 7.63395 22.7394C7.64825 22.7219 7.66112 22.7033 7.67471 22.6851C7.68758 22.6679 7.70117 22.6514 7.71297 22.6336C7.72549 22.6153 7.73586 22.5964 7.7473 22.5774C7.75874 22.5585 7.77126 22.5399 7.78199 22.5206C7.79236 22.5013 7.80094 22.4812 7.81059 22.4616C7.82025 22.4412 7.83098 22.4212 7.83992 22.4004C7.8485 22.3804 7.85493 22.3593 7.86244 22.3389C7.87067 22.3175 7.87925 22.2964 7.8864 22.2742C7.89284 22.2531 7.89749 22.2316 7.90285 22.2102C7.90857 22.1877 7.91537 22.1655 7.92037 22.1426C7.92466 22.1211 7.92717 22.0986 7.93038 22.0764C7.93432 22.0532 7.93861 22.03 7.94111 22.0064C7.94362 21.9842 7.94362 21.9613 7.94469 21.9388C7.94612 21.9148 7.94862 21.8916 7.94862 21.8676L7.98045 9.3235C7.98045 8.85005 8.18105 8.39449 8.54508 8.04083C8.93627 7.66144 9.4655 7.45189 9.99509 7.46834C10.987 7.49802 11.7941 8.36087 11.7941 9.39394L11.8098 21.7911C11.8098 21.8161 11.8123 21.8404 11.8138 21.8648C11.8148 21.8866 11.8148 21.9091 11.817 21.9306C11.8195 21.9563 11.8245 21.981 11.8284 22.006C11.8316 22.0264 11.8338 22.0471 11.8377 22.0671C11.8434 22.0943 11.8513 22.1208 11.8585 22.1472C11.8631 22.1644 11.8667 22.1819 11.8717 22.1987C11.8806 22.2273 11.8921 22.2552 11.9028 22.2831C11.9082 22.2971 11.9121 22.3114 11.9178 22.325C11.9307 22.3546 11.9454 22.3836 11.96 22.4122C11.9657 22.4229 11.97 22.4344 11.9758 22.4448C11.9918 22.4744 12.0101 22.5027 12.028 22.5306C12.0337 22.5399 12.0387 22.5492 12.0448 22.5581C12.0637 22.5864 12.0845 22.6128 12.1052 22.6393C12.1116 22.6475 12.1174 22.6561 12.1238 22.664C12.147 22.6922 12.1721 22.7187 12.1975 22.7448C12.2028 22.7505 12.2071 22.7562 12.2125 22.7616C12.2386 22.7877 12.2665 22.812 12.2947 22.836C12.3001 22.8406 12.3047 22.8456 12.3101 22.8503C12.3383 22.8735 12.3677 22.8946 12.3974 22.9153C12.4038 22.92 12.4095 22.925 12.4159 22.9293C12.446 22.9497 12.4774 22.9679 12.5089 22.9858C12.5157 22.9897 12.5221 22.9944 12.5293 22.9983C12.5622 23.0158 12.5962 23.0316 12.6305 23.0469C12.6369 23.0498 12.643 23.0534 12.6494 23.0562C12.6845 23.0709 12.7206 23.0834 12.7571 23.0956C12.7635 23.0974 12.7692 23.1002 12.7757 23.1024C12.8118 23.1134 12.8486 23.1224 12.8855 23.1306C12.893 23.132 12.9001 23.1345 12.9076 23.1363C12.997 23.1546 13.0896 23.1642 13.1844 23.1642C13.1851 23.1642 13.1858 23.1642 13.1865 23.1642C13.2105 23.1642 13.2341 23.1617 13.2577 23.1606C13.2806 23.1592 13.3035 23.1592 13.326 23.1571C13.351 23.1542 13.375 23.1496 13.3997 23.1456C13.4204 23.1424 13.4419 23.1403 13.4626 23.136C13.4873 23.131 13.5112 23.1238 13.5355 23.1174C13.5552 23.112 13.5749 23.1081 13.5942 23.102C13.6189 23.0945 13.6425 23.0848 13.6664 23.0755C13.6843 23.0687 13.7029 23.0634 13.7204 23.0559C13.7451 23.0451 13.7691 23.0326 13.793 23.0208C13.8087 23.013 13.8252 23.0062 13.8406 22.9979C13.8642 22.9851 13.8867 22.9701 13.9096 22.9561C13.9242 22.9468 13.9396 22.9386 13.9539 22.9289C13.9757 22.9143 13.9961 22.8978 14.0169 22.8817C14.0312 22.871 14.0458 22.861 14.0598 22.8495C14.0794 22.8335 14.098 22.8152 14.117 22.7977C14.1302 22.7855 14.1442 22.7737 14.1574 22.7609C14.1749 22.743 14.1914 22.7237 14.2082 22.7051C14.2207 22.6911 14.2339 22.6779 14.2461 22.6632C14.2611 22.6446 14.2747 22.625 14.2886 22.606C14.3008 22.5896 14.3137 22.5738 14.3251 22.5574C14.338 22.5384 14.3487 22.5184 14.3605 22.4988C14.3716 22.4805 14.3837 22.4626 14.3938 22.444C14.4045 22.4244 14.4131 22.4036 14.4227 22.3836C14.4324 22.3636 14.4431 22.3443 14.4517 22.3235C14.4599 22.3039 14.4667 22.2831 14.4739 22.2627C14.4821 22.2409 14.491 22.2195 14.4978 22.1973C14.5042 22.1759 14.5089 22.154 14.5146 22.1322C14.5203 22.1101 14.5271 22.0882 14.5314 22.0657C14.5361 22.0432 14.5386 22.0199 14.5422 21.9974C14.5454 21.9745 14.55 21.952 14.5522 21.9291C14.5547 21.9059 14.5547 21.8823 14.5557 21.8587C14.5572 21.8354 14.5593 21.8129 14.5593 21.7893V5.26239C14.5593 4.2068 15.4175 3.33357 16.472 3.31533C16.9809 3.30818 17.4643 3.50485 17.8395 3.87353C18.2299 4.25722 18.4538 4.78752 18.4538 5.32819V21.8651C18.4538 21.8901 18.4563 21.9145 18.4577 21.9391C18.4588 21.9609 18.4588 21.9831 18.4609 22.0049C18.4634 22.0292 18.4684 22.0528 18.472 22.0768C18.4756 22.0986 18.4777 22.1204 18.482 22.1415C18.487 22.1655 18.4942 22.1887 18.5003 22.2123C18.5056 22.2327 18.5096 22.2531 18.516 22.2731C18.5239 22.2985 18.5339 22.3232 18.5432 22.3479C18.5496 22.365 18.555 22.3825 18.5621 22.3993C18.5732 22.4251 18.5861 22.4498 18.5986 22.4748C18.6058 22.4895 18.6122 22.5048 18.6201 22.5195C18.6337 22.5449 18.6494 22.5688 18.6648 22.5932C18.673 22.606 18.6801 22.62 18.6891 22.6329C18.7055 22.6572 18.7238 22.6804 18.742 22.7037C18.7509 22.7151 18.7588 22.7273 18.7681 22.7383C18.7881 22.763 18.8103 22.7859 18.8321 22.8091C18.8407 22.8177 18.8482 22.8274 18.8568 22.836C18.8793 22.8588 18.9036 22.8796 18.9279 22.9007C18.9369 22.9085 18.9451 22.9171 18.9544 22.9246C18.9816 22.9472 19.0102 22.9676 19.0388 22.9879C19.0459 22.9929 19.0527 22.9987 19.0603 23.004C19.091 23.0248 19.1232 23.0437 19.1557 23.062C19.1618 23.0652 19.1672 23.0695 19.1732 23.0727C19.209 23.092 19.2455 23.1092 19.283 23.1256C19.2866 23.127 19.2898 23.1292 19.2934 23.1306C19.3324 23.1471 19.3724 23.1614 19.4132 23.1742C19.4153 23.1753 19.4175 23.176 19.42 23.1767C19.5054 23.2036 19.5945 23.2218 19.6864 23.2314C19.6871 23.2314 19.6875 23.2314 19.6882 23.2314C19.7343 23.2361 19.7811 23.2386 19.8287 23.2386C19.8291 23.2386 19.8294 23.2386 19.8301 23.2386C19.8545 23.2386 19.8784 23.2361 19.9027 23.235C19.9253 23.2336 19.9478 23.2336 19.9699 23.2314C19.9953 23.2289 20.02 23.2239 20.045 23.22C20.0654 23.2168 20.0862 23.2146 20.1065 23.2104C20.1334 23.205 20.1591 23.1971 20.1852 23.1903C20.2027 23.1857 20.221 23.1821 20.2381 23.1767C20.266 23.1678 20.2929 23.1571 20.32 23.1467C20.3347 23.141 20.3497 23.1363 20.3644 23.1303C20.3919 23.1185 20.4184 23.1049 20.4452 23.0913C20.4581 23.0848 20.4716 23.0795 20.4845 23.0723C20.5106 23.058 20.5357 23.0419 20.561 23.0258C20.5732 23.0183 20.5857 23.0115 20.5979 23.0033C20.6236 22.9861 20.6476 22.9668 20.6719 22.9479C20.6823 22.94 20.6933 22.9325 20.7037 22.9243C20.7277 22.9043 20.7502 22.8824 20.7731 22.861C20.7824 22.8524 20.7924 22.8445 20.801 22.8356C20.8232 22.8134 20.8439 22.7898 20.8643 22.7659C20.8729 22.7566 20.8818 22.7476 20.89 22.738C20.9097 22.714 20.9276 22.6886 20.9454 22.6636C20.953 22.6529 20.9615 22.6429 20.969 22.6321C20.9859 22.6071 21.0009 22.581 21.0159 22.5549C21.023 22.5427 21.0313 22.5313 21.0381 22.5188C21.0524 22.4923 21.0645 22.4648 21.077 22.4373C21.0831 22.4244 21.0903 22.4119 21.0956 22.3986C21.1071 22.3718 21.1164 22.3439 21.126 22.3164C21.131 22.3017 21.1375 22.2874 21.1421 22.272C21.15 22.2459 21.1561 22.2184 21.1629 22.1916C21.1668 22.1744 21.1722 22.1576 21.1757 22.1405C21.1811 22.114 21.1843 22.0865 21.1882 22.0596C21.1908 22.041 21.1947 22.0228 21.1965 22.0039C21.1993 21.9788 21.1993 21.9531 21.2004 21.9273C21.2015 21.9062 21.2036 21.8855 21.2036 21.8637V10.5168C21.293 9.74974 21.9442 9.1422 22.7327 9.12861C23.1378 9.12182 23.529 9.2813 23.8312 9.57845C24.1473 9.88884 24.3286 10.3179 24.3286 10.7553V26.9822L24.3293 27.0437C24.3368 27.9344 24.9218 28.6871 25.7847 28.9167C26.6418 29.1445 27.5175 28.7844 27.9681 28.0127L27.9767 27.9974C29.0544 26.1143 31.9351 23.1628 32.7762 22.5442C32.8734 22.4723 32.9854 22.4147 33.1087 22.3718C33.6566 22.1826 34.3435 22.3167 34.8191 22.7058C35.0429 22.8892 35.2986 23.1968 35.2421 23.6198Z" fill="#F48C06"/>
</svg>
