<svg width="42" height="36" viewBox="0 0 42 36" fill="none" xmlns="http://www.w3.org/2000/svg">
<g clip-path="url(#clip0_133_89)">
<path d="M17.3382 19.4729C16.9867 21.4836 18.3221 23.3965 20.32 23.7457C22.3185 24.0951 24.2231 22.7487 24.5746 20.738C24.9261 18.7273 23.5913 16.8145 21.5928 16.4652C19.5949 16.1159 17.6897 17.4622 17.3382 19.4729ZM30.002 21.6867C29.6505 23.6974 30.9859 25.6103 32.9838 25.9596C34.9823 26.3089 36.8869 24.9625 37.2384 22.9518C37.5899 20.9411 36.2551 19.0284 34.2566 18.679C32.2586 18.3297 30.3535 19.6761 30.002 21.6867ZM7.65625 21.5319C9.65475 21.8813 11.5594 20.5348 11.9109 18.5241C12.2624 16.5134 10.9275 14.6007 8.92901 14.2513C6.93107 13.902 5.0259 15.2484 4.6744 17.2591C4.3229 19.2698 5.65831 21.1826 7.65625 21.5319ZM34.4747 28.096L30.8565 27.4634C28.8586 27.1142 26.9534 28.4605 26.6019 30.4712L26.2837 32.2913C26.108 33.2964 26.7757 34.2531 27.7746 34.4278L35.0111 35.6928C36.0101 35.8674 36.9627 35.194 37.1384 34.1889L37.4566 32.3688C37.8081 30.3581 36.4727 28.4452 34.4747 28.096ZM21.811 25.8821L18.1927 25.2496C16.1948 24.9003 14.2896 26.2467 13.9381 28.2574L13.6199 30.0775C13.4442 31.0826 14.1119 32.0393 15.1109 32.2139L22.3473 33.479C23.3463 33.6536 24.2989 32.9801 24.4746 31.9751L24.7928 30.1549C25.1443 28.1443 23.8089 26.2314 21.811 25.8821ZM9.14717 23.6683L5.52894 23.0358C3.53101 22.6865 1.62584 24.0328 1.27434 26.0435L0.956148 27.8637C0.780447 28.8687 1.4481 29.8255 2.44707 30.0001L9.68352 31.2651C10.6825 31.4398 11.6351 30.7663 11.8108 29.7613L12.129 27.9411C12.4805 25.9304 11.1451 24.0176 9.14717 23.6683ZM10.52 5.1506L35.8475 9.57826L34.5748 16.8588C35.9701 17.1028 37.1351 17.8703 37.9447 18.9116L39.609 9.39116C39.8809 7.83607 38.885 6.35772 37.3885 6.09611L10.2518 1.35218C8.75531 1.09057 7.31687 2.14335 7.04502 3.69844L5.38069 13.2189C6.49554 12.514 7.85249 12.1874 9.2472 12.4312L10.52 5.1506Z" fill="#545AE8"/>
</g>
<defs>
<clipPath id="clip0_133_89">
<rect width="36.731" height="29.564" fill="white" transform="translate(5.729 0.561523) rotate(9.91602)"/>
</clipPath>
</defs>
</svg>
