<svg width="50" height="42" viewBox="0 0 50 42" fill="none" xmlns="http://www.w3.org/2000/svg">
<g clip-path="url(#clip0_163_106)">
<path d="M16.2189 21.6912C20.5349 21.2253 23.6478 17.3244 23.1778 12.9706C22.7078 8.61673 18.8342 5.46993 14.5183 5.93581C10.2023 6.40169 7.08944 10.3026 7.5594 14.6565C8.02937 19.0103 11.903 22.1571 16.2189 21.6912ZM21.8168 23.364L21.2381 23.4264C19.8637 24.2864 18.2986 24.8822 16.5834 25.0674C14.8681 25.2525 13.2189 25.0036 11.6857 24.4575L11.107 24.52C6.67251 24.9987 3.46646 29.0164 3.94933 33.4898L4.16799 35.5155C4.36919 37.3794 6.03151 38.7299 7.87923 38.5304L27.96 36.3628C29.8078 36.1634 31.1436 34.4893 30.9424 32.6254L30.7237 30.5997C30.2409 26.1263 26.2513 22.8853 21.8168 23.364ZM36.2998 19.5236C39.9952 19.1247 42.6669 15.7766 42.2645 12.0488C41.8621 8.32095 38.5375 5.62011 34.842 6.019C31.1466 6.4179 28.4749 9.76601 28.8773 13.4938C29.2797 17.2217 32.6043 19.9225 36.2998 19.5236ZM39.8895 21.4132L39.6246 21.4418C38.6918 21.884 37.6912 22.2197 36.6035 22.3371C35.5157 22.4545 34.4665 22.3401 33.4609 22.1071L33.1959 22.1357C31.7735 22.2892 30.5075 22.8457 29.4292 23.6381C31.3301 25.3043 32.6619 27.6439 32.955 30.3589L33.2465 33.0598C33.2632 33.2146 33.2443 33.366 33.2533 33.5145L45.5667 32.1853C47.4144 31.9859 48.7503 30.3118 48.5491 28.4479C48.0791 24.0941 44.2055 20.9473 39.8895 21.4132Z" fill="#2C93F1"/>
</g>
<defs>
<clipPath id="clip0_163_106">
<rect width="44.8833" height="36.2216" fill="white" transform="translate(0.888107 5.13037) rotate(-6.16081)"/>
</clipPath>
</defs>
</svg>
